<svg height="512pt" viewBox="-13 0 512 512" width="512pt" xmlns="http://www.w3.org/2000/svg"><path d="m254.734375 269.136719v-45.054688c17.148437 1.28125 23.039063 9.472657 30.207031 9.472657 9.46875 0 13.5625-11.773438 13.5625-17.664063 0-14.84375-27.132812-19.707031-43.769531-20.21875v-6.65625c0-3.328125-4.351563-6.402344-8.703125-6.402344-4.863281 0-8.703125 3.074219-8.703125 6.402344v7.164063c-25.597656 3.328124-49.660156 17.410156-49.660156 49.917968 0 32.765625 26.363281 42.75 49.660156 51.453125v50.9375c-22.527344-2.558593-30.207031-19.199219-39.933594-19.199219-7.9375 0-14.335937 10.75-14.335937 17.921876 0 14.332031 23.296875 30.972656 54.269531 31.738281v7.167969c0 3.328124 3.839844 6.398437 8.703125 6.398437 4.351562 0 8.703125-3.070313 8.703125-6.398437v-7.9375c28.667969-4.605469 48.378906-22.78125 48.378906-54.265626 0-34.8125-25.597656-46.332031-48.378906-54.777343zm-15.359375-5.632813c-11.773438-4.609375-20.476562-9.472656-20.476562-20.734375 0-9.726562 7.679687-15.871093 20.476562-17.917969zm13.3125 84.730469v-44.542969c11.003906 4.867188 19.195312 11.007813 19.195312 23.550782 0 12.03125-7.933593 18.6875-19.195312 20.992187zm0 0"/><path d="m21.960938 238.785156c6.03125 7.945313 15.722656 11.511719 24.957031 10.140625v177.925781h-9.789063c-10.90625 0-19.777344 8.871094-19.777344 19.773438v45.601562c0 10.902344 8.871094 19.773438 19.777344 19.773438h411.914063c10.90625 0 19.777343-8.871094 19.777343-19.773438v-45.601562c0-10.902344-8.871093-19.773438-19.777343-19.773438h-9.789063v-177.921874c1.277344.191406 2.570313.300781 3.875.300781 8.226563 0 16.105469-3.886719 21.082032-10.441407 0 0 16.585937-21.847656 16.597656-21.859374 8.710937-11.472657 6.386718-28.300782-5.0625-36.992188l-208.394532-158.21875c-14.289062-10.847656-34.242187-10.847656-48.527343 0l-79.746094 60.542969v-19.75c8.246094-3.058594 14.136719-11 14.136719-20.296875v-20.578125c0-11.929688-9.703125-21.636719-21.636719-21.636719h-33.636719c-4.140625 0-7.5 3.359375-7.5 7.5s3.359375 7.5 7.5 7.5h33.636719c3.660156 0 6.636719 2.976562 6.636719 6.636719v20.582031c0 3.65625-2.976563 6.632812-6.636719 6.632812h-79.839844c-3.65625 0-6.632812-2.976562-6.632812-6.632812v-20.582031c0-3.660157 2.976562-6.636719 6.632812-6.636719h16.203125c4.144532 0 7.5-3.359375 7.5-7.5s-3.355468-7.5-7.5-7.5h-16.203125c-11.929687 0-21.632812 9.707031-21.632812 21.636719v20.582031c0 9.292969 5.890625 17.234375 14.132812 20.292969v91.753906l-33.8125 25.667969c-11.59375 8.804687-13.863281 25.398437-5.0625 36.992187zm102.117187-174.933594v29.796876l-64.839844 49.226562v-79.023438zm329.742187 382.773438v45.601562c0 2.632813-2.144531 4.773438-4.773437 4.773438h-411.917969c-2.632812 0-4.777344-2.140625-4.777344-4.773438v-45.601562c0-2.632812 2.144532-4.773438 4.777344-4.773438h411.914063c2.636719 0 4.777343 2.140626 4.777343 4.773438zm-434.324218-254.742188 208.398437-158.21875c8.941407-6.789062 21.4375-6.789062 30.382813 0 0 0 208.179687 158.054688 208.398437 158.21875 4.953125 3.761719 5.945313 11.023438 2.183594 15.976563 0 0-16.578125 21.835937-16.59375 21.859375-3.753906 4.941406-11.035156 5.9375-15.976563 2.1875l-37.933593-28.800781c-3.300781-2.503907-8.003907-1.859375-10.511719 1.4375-2.503906 3.300781-1.859375 8.003906 1.441406 10.507812l34.96875 26.550781v185.25h-362.335937v-185.25l181.167969-137.546874s121.859374 92.515624 122.089843 92.691406c3.703125 2.808594 9.296875 1.445312 11.304688-2.734375 1.507812-3.144531.652343-7.019531-2.234375-9.210938l-126.625-96.136719c-2.679688-2.035156-6.390625-2.035156-9.070313 0l-188.667969 143.238282c-5.007812 3.800781-12.175781 2.820312-15.976562-2.1875l-16.59375-21.859375c-3.804688-5.003907-2.820312-12.171875 2.183594-15.972657zm0 0"/></svg>