<svg height="512" viewBox="0 0 60 60" width="512" xmlns="http://www.w3.org/2000/svg"><g id="081---Car-Sold"><path id="Shape" d="m10.5 39c-2.48528137 0-4.5 2.0147186-4.5 4.5s2.01471863 4.5 4.5 4.5c2.4852814 0 4.5-2.0147186 4.5-4.5-.0054995-2.4829999-2.0170001-4.4945005-4.5-4.5zm0 7c-1.38071187 0-2.5-1.1192881-2.5-2.5s1.11928813-2.5 2.5-2.5c1.3807119 0 2.5 1.1192881 2.5 2.5s-1.1192881 2.5-2.5 2.5z"/><path id="Shape" d="m49.5 39c-2.4852814 0-4.5 2.0147186-4.5 4.5s2.0147186 4.5 4.5 4.5 4.5-2.0147186 4.5-4.5c-.0054995-2.4829999-2.0170001-4.4945005-4.5-4.5zm0 7c-1.3807119 0-2.5-1.1192881-2.5-2.5s1.1192881-2.5 2.5-2.5 2.5 1.1192881 2.5 2.5-1.1192881 2.5-2.5 2.5z"/><path id="Shape" d="m56 30h-4.5c-1.67-5.74-1.55-5.39-1.7-5.6-1-1.36-3.22-2.3-5.8-2.95v-3.45h8c1.6568542 0 3-1.3431458 3-3v-12c0-1.65685425-1.3431458-3-3-3h-44c-1.65685425 0-3 1.34314575-3 3v12c0 1.6568542 1.34314575 3 3 3h8v3.45c-2.58.65-4.78 1.59-5.8 2.95-.15.2 0-.14-1.7 5.6h-4.5c-2.209139 0-4 1.790861-4 4-.01105362 1.7922018 1.18885474 3.3660542 2.92 3.83-.59700579.9498726-.91573474 2.0481017-.92 3.17v5c.00712873 2.5365098 1.60854261 4.7945034 4 5.64v5.36c0 1.6568542 1.34314575 3 3 3h6c1.6568542 0 3-1.3431458 3-3v-5h24v5c0 1.6568542 1.3431458 3 3 3h6c1.6568542 0 3-1.3431458 3-3v-5.36c2.3914574-.8454966 3.9928713-3.1034902 4-5.64v-5c-.0042653-1.1218983-.3229942-2.2201274-.92-3.17.659129-.1784912 1.2615883-.5227536 1.75-1 1.1453208-1.1440463 1.4881603-2.8656305.8684897-4.3611605-.6196705-1.49553-2.079663-2.4701135-3.6984897-2.4688395zm-14-9c-.66-.13-1.33-.24-2-.33v-2.67h2zm-4-3v2.44c-5.3178317-.5750662-10.6821683-.5750662-16 0v-2.44zm-31-3v-12c0-.55228475.44771525-1 1-1h44c.5522847 0 1 .44771525 1 1v12c0 .5522847-.4477153 1-1 1h-44c-.55228475 0-1-.4477153-1-1zm11 3h2v2.69c-.67.09-1.34.2-2 .33zm-6.1 7.47c2.2-2.47 12.21-3.47 18.1-3.47s15.9.95 18.1 3.47c2 7 1.46 4.91 2.56 9.27-13.6764759-2.3100213-27.6435241-2.3100213-41.32 0 1.09-4.34.49-2.15 2.56-9.27zm-9.9 8.53c0-1.1045695.8954305-2 2-2h4l-.76 3c-.9122545.1337476-1.78141331.4759361-2.54 1h-.7c-1.1045695 0-2-.8954305-2-2zm14 23c0 .5522847-.4477153 1-1 1h-6c-.55228475 0-1-.4477153-1-1v-5h8zm36 0c0 .5522847-.4477153 1-1 1h-6c-.5522847 0-1-.4477153-1-1v-5h8zm4-11c0 2.209139-1.790861 4-4 4-47.24 0-44.24 0-44.79-.08-1.86664039-.3760689-3.20942324-2.0158535-3.21-3.92v-5c0-2.209139 1.790861-4 4-4 7.2615997-1.3023458 14.6225936-1.9715271 22-2 7.3775473.0254867 14.7388001.6946915 22 2 2.209139 0 4 1.790861 4 4zm1.41-10.59c-.3733503.3755878-.8804232.5877672-1.41.59h-.7c-.7497573-.5198285-1.6081866-.8618322-2.51-1l-.79-3h4c.8063114.0033854 1.5317303.4906258 1.8398346 1.2357575s.138627 1.6024026-.4298346 2.1742425z"/><path id="Shape" d="m38 39h-16c-1.6568542 0-3 1.3431458-3 3v3c0 1.6568542 1.3431458 3 3 3h16c1.6568542 0 3-1.3431458 3-3v-3c0-1.6568542-1.3431458-3-3-3zm1 6c0 .5522847-.4477153 1-1 1h-16c-.5522847 0-1-.4477153-1-1v-3c0-.5522847.4477153-1 1-1h16c.5522847 0 1 .4477153 1 1z"/><path id="Shape" d="m21 11.5c0-2-2-3.5-4.5-3.5-1.5 0-2.5-.79-2.5-1.5s1-1.5 2.5-1.5 2.5.79 2.5 1.5c0 .55228475.4477153 1 1 1 2 0 1-4.5-3.5-4.5-2.5 0-4.5 1.54-4.5 3.5s2 3.5 4.5 3.5c1.47 0 2.5.79 2.5 1.5s-1 1.5-2.5 1.5-2.5-.79-2.5-1.5c0-.5522847-.4477153-1-1-1-2 0-1 4.5 3.5 4.5 2.5 0 4.5-1.54 4.5-3.5z"/><path id="Shape" d="m34 15h5c.5522847 0 1-.4477153 1-1s-.4477153-1-1-1h-4v-9c0-.55228475-.4477153-1-1-1s-1 .44771525-1 1v10c0 .5522847.4477153 1 1 1z"/><path id="Shape" d="m42 15h3c2.209139 0 4-1.790861 4-4v-4c0-2.209139-1.790861-4-4-4h-3c-.5522847 0-1 .44771525-1 1v10c0 .5522847.4477153 1 1 1zm1-10h2c1.1045695 0 2 .8954305 2 2v4c0 1.1045695-.8954305 2-2 2h-2z"/><path id="Shape" d="m26 15h2c1.6568542 0 3-1.3431458 3-3v-6c0-1.65685425-1.3431458-3-3-3h-2c-1.6568542 0-3 1.34314575-3 3v6c0 1.6568542 1.3431458 3 3 3zm-1-9c0-.55228475.4477153-1 1-1h2c.5522847 0 1 .44771525 1 1v6c0 .5522847-.4477153 1-1 1h-2c-.5522847 0-1-.4477153-1-1z"/></g></svg>