<svg id="car" enable-background="new 0 0 300 300" height="512" viewBox="0 0 300 300" width="512" xmlns="http://www.w3.org/2000/svg"><path d="m245.686 166h-1.439l-2.399-9.598c21.582-12.447 36.152-35.747 36.152-62.402 0-39.701-32.299-72-72-72s-72 32.299-72 72 32.299 72 72 72c7.293 0 14.333-1.099 20.973-3.125l.781 3.125h-21.754-133.754l10.166-40.664c1.08-4.319 4.943-7.336 9.396-7.336h22.881c4.418 0 8-3.582 8-8s-3.582-8-8-8h-22.881c-11.808 0-22.055 8-24.918 19.455l-11.136 44.545h-1.439c-17.819 0-32.315 14.496-32.315 32.314v15.371c0 14.944 10.199 27.546 24 31.225v12.598c0 11.3 9.193 20.492 20.492 20.492h23.016c11.299 0 20.492-9.192 20.492-20.492v-11.508h80v11.508c0 11.3 9.193 20.492 20.492 20.492h23.016c11.299 0 20.492-9.192 20.492-20.492v-12.598c13.801-3.678 24-16.281 24-31.225v-15.371c0-17.818-14.496-32.314-32.314-32.314zm-95.686-72c0-30.879 25.122-56 56-56s56 25.121 56 56-25.122 56-56 56-56-25.121-56-56zm-56 163.508c0 2.477-2.015 4.492-4.492 4.492h-23.016c-2.477 0-4.492-2.016-4.492-4.492v-11.508h32zm139.508 4.492h-23.016c-2.477 0-4.492-2.016-4.492-4.492v-11.508h32v11.508c0 2.476-2.015 4.492-4.492 4.492zm28.492-48.314c0 8.996-7.319 16.314-16.314 16.314h-191.372c-8.995 0-16.314-7.318-16.314-16.314v-15.371c0-8.997 7.319-16.315 16.314-16.315h7.66c.011 0 .021.002.032.002.016 0 .031-.002.046-.002h175.896c.016 0 .031.002.046.002.011 0 .021-.002.032-.002h7.66c8.996 0 16.314 7.318 16.314 16.314z"/><circle cx="62" cy="206" r="16"/><circle cx="238" cy="206" r="16"/><path d="m230 86h-16v-8h16c4.418 0 8-3.582 8-8s-3.582-8-8-8h-16v-8c0-4.418-3.582-8-8-8s-8 3.582-8 8v8h-16c-4.418 0-8 3.582-8 8v24c0 4.418 3.582 8 8 8h16v8h-16c-4.418 0-8 3.582-8 8s3.582 8 8 8h16v8c0 4.418 3.582 8 8 8s8-3.582 8-8v-8h16c4.418 0 8-3.582 8-8v-24c0-4.418-3.582-8-8-8zm-40 0v-8h8v8zm32 24h-8v-8h8z" fill="#0faa00"/></svg>