<svg height="512pt" viewBox="-11 0 512 512" width="512pt" xmlns="http://www.w3.org/2000/svg"><path d="m352 42.667969c-47.53125 0-91.113281 38.226562-116.96875 103.421875l-16.449219 60.183594c-.085937.339843-.171875.679687-.234375 1.042968-3.328125 19.734375-5.015625 39.703125-5.015625 59.351563 0 123.519531 62.210938 224 138.667969 224s138.667969-100.480469 138.667969-224-62.210938-224-138.667969-224zm0 106.664062c-17.644531 0-32-14.355469-32-32 0-17.640625 14.355469-32 32-32s32 14.359375 32 32c0 17.644531-14.355469 32-32 32zm0 0" fill="#2196f3"/><path d="m181.332031 245.332031h-106.664062c-5.890625 0-10.667969 4.78125-10.667969 10.667969v74.667969c0 2.835937 1.128906 5.546875 3.113281 7.550781l13.804688 13.78125-13.78125 13.78125c-4.160157 4.160156-4.160157 10.921875 0 15.082031l13.78125 13.804688-13.78125 13.78125c-4.160157 4.160156-4.160157 10.921875 0 15.082031l13.78125 13.800781-13.78125 13.78125c-4.160157 4.160157-4.160157 10.925781 0 15.085938l42.664062 42.664062c1.984375 2.007813 4.695313 3.136719 7.53125 3.136719h21.335938c3.5625 0 6.890625-1.769531 8.875-4.757812l42.664062-64c1.175781-1.75 1.792969-3.796876 1.792969-5.910157v-181.332031c0-5.886719-4.777344-10.667969-10.667969-10.667969zm0 0" fill="#b0bec5"/><path d="m437.332031 266.667969-85.332031-85.335938-85.332031 85.335938h21.332031v85.332031h42.667969v-64h42.664062v64h42.667969v-85.332031zm0 0" fill="#fafafa"/><path d="m256 149.332031c0 70.695313-57.308594 128-128 128s-128-57.304687-128-128c0-70.691406 57.308594-128 128-128s128 57.308594 128 128zm0 0" fill="#eceff1"/><path d="m170.667969 106.667969c0 23.5625-19.105469 42.664062-42.667969 42.664062s-42.667969-19.101562-42.667969-42.664062c0-23.566407 19.105469-42.667969 42.667969-42.667969s42.667969 19.101562 42.667969 42.667969zm0 0" fill="#607d8b"/><path d="m416 362.667969h-42.667969c-5.886719 0-10.664062-4.78125-10.664062-10.667969v-53.332031h-21.335938v53.332031c0 5.886719-4.777343 10.667969-10.664062 10.667969h-42.667969c-5.886719 0-10.667969-4.78125-10.667969-10.667969v-74.667969h-10.664062c-4.3125 0-8.214844-2.601562-9.855469-6.589843-1.664062-3.988282-.75-8.578126 2.300781-11.628907l85.335938-85.332031c4.160156-4.160156 10.921875-4.160156 15.082031 0l85.332031 85.332031c3.050781 3.050781 3.96875 7.640625 2.304688 11.628907-1.621094 3.988281-5.523438 6.589843-9.835938 6.589843h-10.664062v74.667969c0 5.886719-4.78125 10.667969-10.667969 10.667969zm-32-21.335938h21.332031v-74.664062c0-4.566407 2.882813-8.46875 6.933594-9.984375l-60.265625-60.269532-60.265625 60.269532c4.050781 1.515625 6.933594 5.417968 6.933594 9.984375v74.664062h21.332031v-53.332031c0-5.886719 4.777344-10.667969 10.667969-10.667969h42.664062c5.890625 0 10.667969 4.78125 10.667969 10.667969zm0 0"/><path d="m128 277.332031c-70.59375 0-128-57.40625-128-128 0-70.589843 57.40625-128 128-128s128 57.410157 128 128c0 70.59375-57.40625 128-128 128zm0-234.664062c-58.816406 0-106.667969 47.847656-106.667969 106.664062 0 58.816407 47.851563 106.667969 106.667969 106.667969s106.667969-47.851562 106.667969-106.667969c0-58.816406-47.851563-106.664062-106.667969-106.664062zm0 0"/><path d="m138.667969 512h-21.335938c-2.835937 0-5.546875-1.128906-7.550781-3.113281l-42.667969-42.667969c-4.160156-4.160156-4.160156-10.921875 0-15.082031l13.804688-13.804688-13.78125-13.78125c-4.160157-4.160156-4.160157-10.921875 0-15.082031l13.78125-13.800781-13.78125-13.78125c-4.160157-4.160157-4.160157-10.925781 0-15.085938l13.78125-13.800781-13.78125-13.78125c-2.007813-2.003906-3.136719-4.714844-3.136719-7.550781v-74.667969c0-5.886719 4.777344-10.667969 10.667969-10.667969 5.886719 0 10.664062 4.78125 10.664062 10.667969v70.25l18.21875 18.21875c4.160157 4.160156 4.160157 10.921875 0 15.082031l-13.800781 13.78125 13.78125 13.78125c4.160156 4.160157 4.160156 10.925781 0 15.085938l-13.78125 13.800781 13.78125 13.78125c4.160156 4.160156 4.160156 10.921875 0 15.082031l-13.78125 13.804688 32 32h11.199219l37.71875-56.554688v-178.113281c0-5.886719 4.777343-10.667969 10.664062-10.667969 5.890625 0 10.667969 4.78125 10.667969 10.667969v181.332031c0 2.113281-.617188 4.160157-1.792969 5.910157l-42.664062 64c-1.984375 2.964843-5.3125 4.757812-8.875 4.757812zm0 0"/><path d="m138.667969 490.667969c-5.890625 0-10.667969-4.78125-10.667969-10.667969v-213.332031c0-5.890625 4.777344-10.667969 10.667969-10.667969 5.886719 0 10.664062 4.777344 10.664062 10.667969v213.332031c0 5.886719-4.777343 10.667969-10.664062 10.667969zm0 0"/><path d="m128 149.332031c-23.53125 0-42.667969-19.132812-42.667969-42.664062s19.136719-42.667969 42.667969-42.667969 42.667969 19.136719 42.667969 42.667969-19.136719 42.664062-42.667969 42.664062zm0-64c-11.753906 0-21.332031 9.578125-21.332031 21.335938 0 11.753906 9.578125 21.332031 21.332031 21.332031s21.332031-9.578125 21.332031-21.332031c0-11.757813-9.578125-21.335938-21.332031-21.335938zm0 0"/><path d="m352 149.332031c-17.644531 0-32-14.355469-32-32 0-17.640625 14.355469-32 32-32s32 14.359375 32 32c0 17.644531-14.355469 32-32 32zm0-42.664062c-5.886719 0-10.667969 4.777343-10.667969 10.664062 0 5.890625 4.78125 10.667969 10.667969 10.667969s10.667969-4.777344 10.667969-10.667969c0-5.886719-4.78125-10.664062-10.667969-10.664062zm0 0"/><path d="m352 106.667969c-4.652344 0-8.917969-3.074219-10.261719-7.746094-.894531-3.179687-23.019531-77.589844-96.40625-77.589844-75.753906 0-95.53125 74.132813-96.320312 77.292969-1.449219 5.671875-7.273438 9.109375-12.949219 7.699219-5.714844-1.429688-9.171875-7.210938-7.742188-12.90625.234376-.9375 24.425782-93.417969 117.011719-93.417969 89.707031 0 116.671875 92.179688 116.929688 93.121094 1.601562 5.652344-1.707031 11.539062-7.359375 13.140625-.960938.277343-1.941406.40625-2.902344.40625zm0 0"/><path d="m352 490.667969c-76.457031 0-138.667969-100.480469-138.667969-224 0-19.648438 1.6875-39.617188 4.992188-59.351563.960937-5.800781 6.316406-9.683594 12.289062-8.746094 5.800781.980469 9.726563 6.484376 8.746094 12.289063-3.113281 18.558594-4.714844 37.332031-4.714844 55.808594 0 111.742187 52.628907 202.664062 117.335938 202.664062 64.703125 0 117.332031-90.921875 117.332031-202.664062 0-111.746094-52.609375-202.667969-117.3125-202.667969-38.464844 0-74.644531 33.214844-96.789062 88.851562-2.175782 5.464844-8.339844 8.152344-13.84375 5.953126-5.464844-2.175782-8.152344-8.382813-5.953126-13.84375 25.472657-64.066407 69.054688-102.292969 116.585938-102.292969 76.457031 0 138.667969 100.480469 138.667969 224s-62.210938 224-138.667969 224zm0 0"/></svg>