<?xml version="1.0"?>
<svg xmlns="http://www.w3.org/2000/svg" id="Layer_1" data-name="Layer 1" viewBox="0 0 512 512" width="512" height="512"><title>Car Key</title><path d="M442.275,289.72l-32.612-87.859A36.808,36.808,0,0,0,375.156,178H142.6A36.807,36.807,0,0,0,108.1,201.861L75.881,288.728,62.172,301.215A51.264,51.264,0,0,0,44,340.094V496.732A8.657,8.657,0,0,0,52.482,505h81.6A8.164,8.164,0,0,0,142,496.732V449H370v47.732A8.164,8.164,0,0,0,377.918,505h81.6A8.657,8.657,0,0,0,468,496.732V336.8a51.638,51.638,0,0,0-16.1-37.045ZM123.1,207.313A20.649,20.649,0,0,1,142.6,194H375.156a20.649,20.649,0,0,1,19.5,13.313L423.542,285H94.218ZM126,489H60V449h66Zm260,0V449h66v40Zm66-56H60V340.094a35.377,35.377,0,0,1,12.667-26.84c.093-.078.3-.266.393-.348L85.867,301H431.118l9.02,9.747c.113.12.47.291.59.4A35.7,35.7,0,0,1,452,336.8V433Z"/><path d="M125.294,340h-7.052a31.5,31.5,0,1,0,0,63h7.052a31.5,31.5,0,1,0,0-63Zm0,47h-7.052a15.5,15.5,0,1,1,0-31h7.052a15.5,15.5,0,1,1,0,31Z"/><path d="M393.758,340h-7.052a31.5,31.5,0,1,0,0,63h7.052a31.5,31.5,0,1,0,0-63Zm0,47h-7.052a15.5,15.5,0,1,1,0-31h7.052a15.5,15.5,0,1,1,0,31Z"/><path d="M326,348a8,8,0,0,0-8-8H194a8,8,0,0,0-8,8v46a8,8,0,0,0,8,8H318a8,8,0,0,0,8-8Zm-16,38H202V356H310Z"/><path d="M354.633,108.078A27.9,27.9,0,1,0,334.9,99.916,27.826,27.826,0,0,0,354.633,108.078ZM346.21,71.755a11.913,11.913,0,1,1,0,16.847A11.877,11.877,0,0,1,346.21,71.755Z"/><path d="M110.466,106.467a8.182,8.182,0,0,0,6.51,3.533H278.762a73.011,73.011,0,0,0,118.232,21.78A72.876,72.876,0,1,0,278.762,51H215.057a7.934,7.934,0,0,0-3.578.78L200.908,57h-9.915L178.947,41.594a7.987,7.987,0,0,0-11.718-.991L152.6,54.1,137.07,40.457a8,8,0,0,0-11.243.677L95.687,74.847a8.131,8.131,0,0,0-.546,10.073ZM305.2,39.937a56.91,56.91,0,1,1,0,80.483A56.537,56.537,0,0,1,305.2,39.937ZM132.471,57.707l14.985,13.158a8,8,0,0,0,10.7-.133l13.557-12.514,9.1,11.651A8.07,8.07,0,0,0,187.1,73H202.8a7.934,7.934,0,0,0,3.578-.78L216.946,67h56.868a73.991,73.991,0,0,0,0,27H121.093l-9.211-13.079Z"/></svg>
