<svg id="Capa_1" enable-background="new 0 0 512 512" height="512" viewBox="0 0 512 512" width="512" xmlns="http://www.w3.org/2000/svg"><g><g><path d="m385.041 105.547c-4.267 0-7.726-3.459-7.726-7.726v-33.301c0-4.267 3.459-7.726 7.726-7.726s7.726 3.459 7.726 7.726v33.301c0 4.267-3.459 7.726-7.726 7.726z" fill="#2b4d66"/></g><g><path d="m126.959 105.547c-4.267 0-7.726-3.459-7.726-7.726v-33.301c0-4.267 3.459-7.726 7.726-7.726s7.726 3.459 7.726 7.726v33.301c.001 4.267-3.459 7.726-7.726 7.726z" fill="#2b4d66"/></g><g><path d="m37.463 201.886h437.073v276.813h-437.073z" fill="#ccf49f"/></g><g><path d="m37.463 201.886v60.358c13.626 0 26.226-4.468 36.423-12.008 10.197 7.54 22.796 12.008 36.423 12.008s26.226-4.468 36.423-12.008c10.197 7.54 22.796 12.008 36.423 12.008 13.626 0 26.226-4.468 36.423-12.008 10.197 7.54 22.796 12.008 36.423 12.008s26.226-4.468 36.423-12.008c10.197 7.54 22.796 12.008 36.423 12.008s26.226-4.468 36.423-12.008c10.197 7.54 22.796 12.008 36.423 12.008 13.626 0 26.226-4.468 36.423-12.008 10.197 7.54 22.796 12.008 36.423 12.008v-60.358z" fill="#b3e59f"/></g><g><path d="m37.463 395.447v-126.959h70.869c5.69 0 10.302 4.612 10.302 10.302v116.658h-81.171z" fill="#bed8fb"/></g><g><path d="m37.463 395.447v33.301h70.869c5.69 0 10.302-4.612 10.302-10.302v-22.999z" fill="#8078bc"/></g><g><path d="m474.537 395.447v-126.959h-70.869c-5.69 0-10.302 4.612-10.302 10.302v116.658h81.171z" fill="#bed8fb"/></g><g><path d="m474.537 395.447v33.301h-70.869c-5.69 0-10.302-4.612-10.302-10.302v-22.999z" fill="#8078bc"/></g><g><g><path d="m105.106 64.52h301.789c5.747 0 10.406-4.659 10.406-10.407v-43.706c0-5.748-4.659-10.407-10.407-10.407h-301.788c-5.747 0-10.407 4.659-10.407 10.407v43.707c0 5.747 4.659 10.406 10.407 10.406z" fill="#8078bc"/></g><g><path d="m406.894 0h-22.894c5.747 0 10.406 4.659 10.406 10.407v43.707c0 5.747-4.659 10.407-10.406 10.407h22.894c5.747 0 10.406-4.659 10.406-10.407v-43.707c.001-5.748-4.658-10.407-10.406-10.407z" fill="#6b61b1"/></g><g><g><path d="m219.577 181.073v19.772c0 20.116 16.307 36.423 36.423 36.423s36.423-16.307 36.423-36.423v-19.772z" fill="#ffd064"/></g><g><path d="m280.976 97.821h-49.952l-11.447 83.252h72.846z" fill="#ffe07d"/></g><g><path d="m146.732 181.073v19.772c0 20.116-16.307 36.423-36.423 36.423s-36.423-16.307-36.423-36.423v-19.772z" fill="#ffd064"/></g><g><path d="m219.577 181.073v19.772c0 20.116-16.307 36.423-36.423 36.423s-36.423-16.307-36.423-36.423v-19.772z" fill="#cb5769"/></g><g><path d="m178.992 97.821h52.032l-11.447 83.252h-72.845z" fill="#d57080"/></g><g><path d="m126.959 97.821h52.033l-32.26 83.252h-72.846z" fill="#ffe07d"/></g><g><path d="m365.268 181.073v19.772c0 20.116 16.307 36.423 36.423 36.423s36.423-16.307 36.423-36.423v-19.772z" fill="#ffd064"/></g><g><path d="m292.423 181.073v19.772c0 20.116 16.307 36.423 36.423 36.423s36.423-16.307 36.423-36.423v-19.772z" fill="#cb5769"/></g><g><path d="m509.414 181.075h-71.299l-53.075-83.249h42.773c5.891 0 11.5 2.521 15.41 6.927l62.545 70.471.021.021c1.544 1.74 2.77 3.718 3.625 5.83z" fill="#d57080"/></g><g><path d="m510.959 200.846v-11.948c0-2.708-.55-5.36-1.562-7.824h-71.283v19.053c0 20.423 16.714 37.526 37.133 37.135 19.788-.379 35.712-16.538 35.712-36.416z" fill="#cb5769"/></g><g><path d="m2.586 181.075h71.299l53.075-83.249h-42.773c-5.891 0-11.5 2.521-15.41 6.927l-62.544 70.471c-.01.01-.01.01-.021.021-1.545 1.74-2.771 3.718-3.626 5.83z" fill="#d57080"/></g><g><path d="m1.041 200.846v-11.948c0-2.708.55-5.36 1.562-7.824h71.283v19.053c0 20.423-16.714 37.526-37.133 37.135-19.788-.379-35.712-16.538-35.712-36.416z" fill="#cb5769"/></g><g><path d="m333.008 97.821h-52.032l11.447 83.252h72.845z" fill="#d57080"/></g><g><path d="m385.041 97.821h-52.033l32.26 83.252h72.846z" fill="#ffe07d"/></g></g></g><g><path d="m151.935 278.79v199.91h208.13v-199.91c0-5.69-4.612-10.302-10.302-10.302h-187.526c-5.69 0-10.302 4.612-10.302 10.302z" fill="#bed8fb"/></g><g><path d="m10.407 512h491.187c5.747 0 10.406-4.659 10.406-10.406v-12.488c0-5.747-4.659-10.406-10.406-10.406h-491.187c-5.748-.001-10.407 4.658-10.407 10.406v12.488c0 5.747 4.659 10.406 10.407 10.406z" fill="#8078bc"/></g><g><path d="m501.594 478.699h-31.22c5.747 0 10.406 4.659 10.406 10.406v12.488c0 5.747-4.659 10.406-10.406 10.406h31.22c5.747 0 10.406-4.659 10.406-10.406v-12.488c0-5.747-4.659-10.406-10.406-10.406z" fill="#6b61b1"/></g><g><path d="m222.699 402.133c-4.267 0-7.726-3.459-7.726-7.726v-41.626c0-4.267 3.459-7.726 7.726-7.726s7.726 3.459 7.726 7.726v41.626c.001 4.267-3.459 7.726-7.726 7.726z" fill="#8078bc"/></g><g><path d="m289.301 402.133c-4.267 0-7.726-3.459-7.726-7.726v-41.626c0-4.267 3.459-7.726 7.726-7.726s7.726 3.459 7.726 7.726v41.626c0 4.267-3.459 7.726-7.726 7.726z" fill="#8078bc"/></g><g><path d="m248.274 268.488h15.453v210.211h-15.453z" fill="#80b4fb"/></g></g></svg>